<svg width="207" height="92" viewBox="0 0 207 92" fill="none" xmlns="http://www.w3.org/2000/svg">
<path d="M88.2637 24.6333L88.1191 65.564L70.3672 73.5288V16.5151L88.2637 24.6333Z" fill="white"/>
<path d="M68.8027 9.29688V74.2295L51.0977 82.1729V1.2666L68.8027 9.29688Z" fill="white"/>
<path d="M29.9189 73.3723L12.043 65.3528V25.0188L29.7578 16.9827L29.9189 73.3723Z" fill="white"/>
<path d="M49.5361 82.1733L31.832 74.231V9.53369L49.5361 1.50244V82.1733Z" fill="white"/>
<path d="M50.3164 84.6074L98.4824 62.8604V69.0352L50.3164 90.8555L1.62793 68.7988V62.625L50.3164 84.6074Z" fill="white"/>
<path d="M188.434 62.8293H179.309L169.17 28.8655H178.295L188.434 62.8293ZM191.729 62.8293H191.475L187.199 48.5071L193.503 28.8655H202.628L191.729 62.8293Z" fill="white"/>
<path d="M135.207 51.8293V62.8293H126.082V34.6077L135.207 51.8293ZM165.117 62.8293H155.992V42.3293L151.449 52.8245L146.427 43.3469L152.695 28.8655H165.117V62.8293ZM135.713 28.8655L145.059 46.5051L145.061 46.5032L149.682 55.2258H140.556L134.261 43.3469L126.588 28.8655H135.713Z" fill="white"/>
</svg>
