<svg width="489" height="184" viewBox="0 0 489 184" fill="none" xmlns="http://www.w3.org/2000/svg">
<path d="M190.865 78.3669V154.412C184.867 153.647 178.658 152.997 172.27 152.474V67.0261L190.865 78.3669Z" fill="white"/>
<path d="M167.104 26.7979V152.156C158.433 151.528 149.453 151.131 140.243 150.987V146.743L135.078 143.546V150.933C134.218 150.928 133.357 150.926 132.493 150.926C131.631 150.926 130.771 150.928 129.913 150.933V4.11719L167.104 26.7979ZM155.738 143.935L164.004 148.859L164.003 137.052L155.738 131.936V143.935ZM135.078 131.148L140.243 134.347V121.949L135.078 118.752V131.148ZM155.738 119.538L164.003 124.654V112.258L155.738 107.142V119.538ZM135.078 106.354L140.243 109.553V97.1562L135.078 93.958V106.354ZM155.738 94.7451L164.003 99.8604V86.4307L155.738 81.3145V94.7451ZM135.078 81.5605L140.243 84.7588V72.3623L135.078 69.1641V81.5605ZM155.738 68.918L164.003 74.0332V62.1543L155.738 57.0371V68.918ZM135.078 56.7666L140.243 59.9648V47.5684L135.078 44.3701V56.7666ZM155.738 44.6406L164.003 49.7568V34.1875L155.738 29.0225V44.6406ZM135.078 31.9727L140.243 35.1709V19.7246L135.078 16.625V31.9727Z" fill="white"/>
<path d="M196.467 43.8909L217.725 56.9153V158.905C214.385 158.197 210.939 157.53 207.394 156.906V60.1282L202.229 57.0872V156.041C200.191 155.716 198.125 155.403 196.03 155.106V50.0002L174.891 62.6252L172.27 61.051V58.1536L196.03 43.5881L196.467 43.8909Z" fill="white"/>
<path d="M124.748 151.044C121.268 151.12 117.823 151.233 114.416 151.381V76.3369L82.1357 56.8701L75.1602 61.0928V29.6387L124.748 0V151.044ZM106.152 48.7236V60.6025L114.418 55.4854L114.417 43.6064L106.152 48.7236ZM80.3252 36.2539V51.7002L85.4902 48.502V33.1543L80.3252 36.2539ZM106.15 20.7578L106.151 36.3262L114.417 31.21L114.415 15.5918L106.15 20.7578Z" fill="white"/>
<path d="M133.527 156.091C193.502 156.091 244.919 166.859 266.622 182.176C267.571 182.846 266.804 184.068 265.721 183.648C237.317 172.643 188.715 165.389 133.528 165.389C78.3415 165.389 29.7389 172.643 1.33535 183.648C0.252258 184.068 -0.515504 182.846 0.433515 182.176C22.1367 166.86 73.5532 156.091 133.527 156.091Z" fill="white"/>
<path d="M108.216 78.6101V151.577C100.037 152.003 92.0958 152.633 84.4554 153.446V97.1853L106.667 83.7755L81.6517 68.133L79.292 69.5767V154.029C77.9036 154.195 76.526 154.366 75.1597 154.544V72.1049L69.9943 75.2647V155.405C67.543 155.767 65.1316 156.148 62.7627 156.549V73.6222L64.5514 72.5528L81.0353 62.44L81.576 62.0808L108.216 78.6101Z" fill="white"/>
<path d="M471.27 99.4293C476.891 100.74 480.837 102.327 483.108 104.191C486.37 106.841 488.001 110.277 488.001 114.5C488.001 118.955 486.21 122.639 482.628 125.551C478.23 129.075 471.838 130.837 463.451 130.837H433.354V129.221C436.092 129.221 437.941 128.973 438.902 128.478C439.892 127.954 440.577 127.284 440.955 126.469C441.363 125.653 441.567 123.644 441.567 120.44V82.0001C441.567 78.7968 441.363 76.7874 440.955 75.972C440.577 75.1275 439.892 74.4577 438.902 73.9626C437.912 73.4675 436.063 73.22 433.354 73.22V71.6038H461.748C468.533 71.6038 473.338 72.2153 476.163 73.4384C478.988 74.6324 481.215 76.4379 482.846 78.855C484.477 81.243 485.292 83.7911 485.292 86.4994C485.292 89.3533 484.258 91.9014 482.191 94.1437C480.123 96.357 476.483 98.1188 471.27 99.4293ZM455.37 98.2499C459.505 98.2499 462.549 97.7839 464.5 96.852C466.48 95.9202 467.994 94.6097 469.043 92.9206C470.091 91.2316 470.615 89.0766 470.615 86.4557C470.615 83.8348 470.091 81.6943 469.043 80.0344C468.023 78.3454 466.553 77.064 464.631 76.1904C462.709 75.3167 459.622 74.8945 455.37 74.9236V98.2499ZM455.37 101.657V120.659L455.326 122.843C455.326 124.415 455.72 125.609 456.506 126.425C457.321 127.211 458.515 127.604 460.088 127.604C462.418 127.604 464.558 127.095 466.509 126.075C468.489 125.027 470.004 123.527 471.052 121.576C472.1 119.596 472.625 117.397 472.625 114.98C472.625 112.214 471.984 109.738 470.703 107.554C469.421 105.341 467.659 103.797 465.417 102.924C463.175 102.05 459.826 101.628 455.37 101.657Z" fill="white"/>
<path d="M385.521 95.4102H403.693V97.1138C401.654 97.405 400.053 98.0165 398.888 98.9484C397.723 99.8512 396.209 101.977 394.345 105.326C392.481 108.675 389.86 112.417 386.482 116.552C389.452 119.232 391.87 121.095 393.733 122.144C395.044 122.872 396.325 123.236 397.577 123.236C399.732 123.236 401.683 121.823 403.431 118.999L405.222 119.96C402.834 124.648 400.286 127.982 397.577 129.963C395.51 131.448 393.151 132.191 390.501 132.191C388.229 132.191 386.06 131.71 383.992 130.749C381.954 129.759 379.464 127.924 376.523 125.245C372.882 127.691 369.461 129.468 366.257 130.574C363.054 131.652 359.72 132.191 356.254 132.191C350.721 132.191 346.324 130.691 343.062 127.691C339.801 124.692 338.17 121.168 338.17 117.12C338.17 112.752 339.728 108.952 342.844 105.719C345.96 102.487 350.488 99.691 356.429 97.3322C355.672 95.4393 355.104 93.5901 354.725 91.7846C354.347 89.979 354.157 88.2317 354.157 86.5427C354.157 81.8833 355.788 78.0101 359.05 74.9233C362.341 71.8073 366.534 70.2493 371.63 70.2493C375.736 70.2493 378.983 71.2831 381.371 73.3507C383.788 75.3892 384.997 77.7772 384.997 80.5146C384.997 83.8053 383.759 86.6301 381.284 88.9889C378.838 91.3186 374.95 93.459 369.621 95.4102C372.912 101.205 377.731 107.452 384.08 114.15C388.36 109.345 390.501 105.224 390.501 101.788C390.501 100.565 390.079 99.5309 389.234 98.6863C388.39 97.8127 387.152 97.2885 385.521 97.1138V95.4102ZM368.136 92.7893C371.193 91.6535 373.246 90.445 374.295 89.1636C375.343 87.8532 375.867 86.2806 375.867 84.446C375.867 81.1844 375.008 78.4324 373.29 76.19C372.154 74.7048 370.757 73.9622 369.097 73.9622C367.728 73.9622 366.549 74.501 365.558 75.5785C364.597 76.656 364.117 78.1121 364.117 79.9467C364.117 81.3737 364.35 82.9025 364.816 84.5333C365.282 86.1641 366.388 88.9161 368.136 92.7893ZM357.652 100.128C355.322 101.118 353.677 102.166 352.716 103.273C351.347 104.904 350.663 106.724 350.663 108.733C350.663 111.471 351.449 114.194 353.022 116.902C354.623 119.61 356.545 121.707 358.788 123.192C361.03 124.677 363.272 125.42 365.515 125.42C366.621 125.42 367.859 125.187 369.228 124.721C370.626 124.226 372.14 123.498 373.771 122.537C366.752 115.344 361.38 107.874 357.652 100.128Z" fill="white"/>
<path d="M304.447 70.2493L304.928 89.9936H303.137C302.292 85.043 300.21 81.0679 296.89 78.0684C293.6 75.0397 290.032 73.5254 286.188 73.5254C283.218 73.5254 280.859 74.3263 279.112 75.9279C277.394 77.5005 276.535 79.3206 276.535 81.3882C276.535 82.6987 276.84 83.8635 277.452 84.8828C278.296 86.2515 279.651 87.6056 281.514 88.9452C282.883 89.9062 286.043 91.6098 290.993 94.056C297.924 97.4632 302.598 100.681 305.015 103.71C307.403 106.738 308.597 110.204 308.597 114.106C308.597 119.057 306.661 123.323 302.787 126.905C298.943 130.458 294.051 132.234 288.11 132.234C286.247 132.234 284.485 132.045 282.825 131.666C281.165 131.288 279.083 130.574 276.578 129.526C275.18 128.944 274.03 128.652 273.127 128.652C272.37 128.652 271.569 128.944 270.725 129.526C269.88 130.108 269.196 130.997 268.672 132.191H267.056V109.825H268.672C269.953 116.116 272.414 120.921 276.054 124.24C279.723 127.531 283.669 129.176 287.892 129.176C291.154 129.176 293.745 128.288 295.667 126.512C297.618 124.735 298.594 122.668 298.594 120.309C298.594 118.911 298.215 117.557 297.458 116.247C296.73 114.936 295.609 113.698 294.095 112.534C292.58 111.34 289.901 109.796 286.057 107.903C280.67 105.253 276.797 102.996 274.438 101.133C272.079 99.2688 270.259 97.1866 268.978 94.886C267.725 92.5854 267.099 90.0518 267.099 87.2853C267.099 82.5676 268.832 78.5489 272.297 75.229C275.763 71.9092 280.131 70.2493 285.402 70.2493C287.324 70.2493 289.188 70.4822 290.993 70.9482C292.362 71.2976 294.022 71.9529 295.973 72.9139C297.953 73.8458 299.337 74.3117 300.123 74.3117C300.88 74.3117 301.477 74.0787 301.914 73.6128C302.351 73.1468 302.758 72.0257 303.137 70.2493H304.447Z" fill="white"/>
</svg>
